<svg id="Layer_1" data-name="Layer 1" xmlns="http://www.w3.org/2000/svg" viewBox="0 0 262.68 248.44"><defs><style>.cls-1{fill:#231f20;}.cls-2,.cls-3{fill:#fff;}.cls-3{font-size:20px;font-family:CenturyGothic, Century Gothic;}</style></defs><rect class="cls-1" x="60.47" y="44.91" width="141.73" height="141.73" rx="12"/><path class="cls-2" d="M101.31,88.62a1.42,1.42,0,0,0-2-2l-25.83,26.2a1.41,1.41,0,0,0,0,2h0a1.42,1.42,0,0,0,2,0Z"/><path class="cls-2" d="M109.08,94.13h0a1.42,1.42,0,0,0-2,0l-31.76,32.2a1.41,1.41,0,0,0,0,2h0a1.43,1.43,0,0,0,2,0l31.76-32.2A1.43,1.43,0,0,0,109.08,94.13Z"/><path class="cls-2" d="M116.2,102.31a1.42,1.42,0,0,0-2,0L86,130.11a1.41,1.41,0,0,0,2,2l28.18-27.81A1.41,1.41,0,0,0,116.2,102.31Z"/><path class="cls-2" d="M133.43,104.44l.54-.5c9.21-9.21,9.76-24.25.74-33.65q-.53-.54-1.08-1.05a20.94,20.94,0,0,1,26.29,2.7l25,25a1.41,1.41,0,1,0,2-2L162.27,70.29a24.37,24.37,0,0,0-15.33-7.24,23.59,23.59,0,0,0-15.6,4.33,23.61,23.61,0,0,0-15.6-4.33,24.34,24.34,0,0,0-15.33,7.24L75.73,95a1.42,1.42,0,0,0,2,2l25-25a20.94,20.94,0,0,1,26.29-2.7q-.56.49-1.08,1.05c-9,9.4-8.47,24.44.74,33.65l.54.5-27,24.93a1.48,1.48,0,0,0,2,2.17l27.13-25.16,27.13,25.16a1.48,1.48,0,1,0,2-2.17Z"/><path class="cls-2" d="M189.22,112.83l-25.83-26.2a1.42,1.42,0,0,0-2,2l25.84,26.2a1.41,1.41,0,0,0,2,0h0A1.41,1.41,0,0,0,189.22,112.83Z"/><path class="cls-2" d="M155.61,94.15a1.42,1.42,0,1,0-2,2l31.77,32.2a1.42,1.42,0,0,0,2,0h0a1.41,1.41,0,0,0,0-2Z"/><path class="cls-2" d="M148.49,102.29a1.42,1.42,0,1,0-2,2l28.18,27.81a1.41,1.41,0,1,0,2-2Z"/><text class="cls-3" transform="translate(70.49 162.43)">White Hands</text></svg>