<svg id="Layer_1" data-name="Layer 1" xmlns="http://www.w3.org/2000/svg" viewBox="0 0 262.68 248.44"><defs><style>.cls-1{font-size:40.43px;font-family:CenturyGothic, Century Gothic;}</style></defs><path d="M71.91,72.39a2.86,2.86,0,1,0-4.08-4l-52.22,53a2.86,2.86,0,0,0,0,4h0a2.86,2.86,0,0,0,4.05,0Z"/><path d="M87.61,83.53h0a2.86,2.86,0,0,0-4,0l-64.21,65.1a2.86,2.86,0,0,0,0,4.05h0a2.86,2.86,0,0,0,4.05,0l64.21-65.1A2.86,2.86,0,0,0,87.61,83.53Z"/><path d="M102,100.06A2.86,2.86,0,0,0,98,100L41,156.26a2.86,2.86,0,1,0,4,4.07l57-56.22A2.86,2.86,0,0,0,102,100.06Z"/><path d="M136.85,104.38l1.09-1c18.62-18.62,19.73-49,1.5-68-.71-.72-1.44-1.43-2.19-2.12a42.35,42.35,0,0,1,53.15,5.46L241,89.26a2.87,2.87,0,0,0,4.89-2,2.78,2.78,0,0,0-.85-2L195.15,35.34a49.32,49.32,0,0,0-31-14.63,47.7,47.7,0,0,0-31.54,8.75,47.69,47.69,0,0,0-31.53-8.75,49.25,49.25,0,0,0-31,14.63L20.21,85.22a2.85,2.85,0,0,0-.83,2,2.86,2.86,0,0,0,4.89,2L74.85,38.68A42.34,42.34,0,0,1,128,33.22c-.74.67-1.47,1.38-2.18,2.12-18.23,19-17.12,49.41,1.5,68l1.09,1-54.68,50.4a3,3,0,0,0,4.06,4.38l54.84-50.86,54.85,50.86a3,3,0,1,0,4-4.38Z"/><path d="M249.63,121.33l-52.22-53a2.86,2.86,0,0,0-4.08,4l52.22,53a2.86,2.86,0,0,0,4,0h0A2.86,2.86,0,0,0,249.63,121.33Z"/><path d="M181.68,83.56a2.86,2.86,0,1,0-4.08,4l64.21,65.1a2.86,2.86,0,0,0,4.05,0h0a2.86,2.86,0,0,0,0-4.05Z"/><path d="M167.28,100a2.86,2.86,0,1,0-4,4.08l57,56.22a2.86,2.86,0,1,0,4-4.07Z"/><text class="cls-1" transform="translate(9.61 221.61)">White Hands</text></svg>